<?xml version="1.0" encoding="utf-8"?>
<!-- Generator: Adobe Illustrator 28.0.0, SVG Export Plug-In . SVG Version: 6.00 Build 0)  -->
<svg version="1.1" id="Layer_1" xmlns="http://www.w3.org/2000/svg" xmlns:xlink="http://www.w3.org/1999/xlink" x="0px" y="0px"
	 viewBox="0 0 403.8 401.4" style="enable-background:new 0 0 403.8 401.4;" xml:space="preserve">
<style type="text/css">
	.st0{fill:#36AB4E;}
	.st1{fill:#CCA602;}
	.st2{fill:none;}
	.st3{fill:#FFFFFF;}
	.st4{fill:#F2A40A;}
	.st5{fill:#F1A908;}
</style>
<path class="st0" d="M139.6,176.1v-54.2H98v154.4c63.1-63,126-125.8,188.8-188.6h-28C219.6,116.8,179.9,146.2,139.6,176.1
	L139.6,176.1z"/>
<polygon class="st1" points="163.2,239.4 194.2,208.3 262.4,276.4 200.3,276.4 "/>
<path class="st2" d="M131.1,211.7c0.5-0.6,1-0.9,1.6-1C132.1,210.8,131.6,211.1,131.1,211.7z"/>
<path class="st2" d="M132.9,210.7c0.6-0.1,1.3,0,2,0.2C134.2,210.7,133.5,210.6,132.9,210.7z"/>
<path class="st3" d="M399.9,373.1c-20.9-21.2-43.1-41.1-65.1-61.9c-6.8,6.4-15.1,14.1-26.3,24.4c21.5,20.4,42.6,40.4,63.7,60.3
	c8,7.6,16.6,6.7,24.3-0.1C403.8,389.6,406.8,380.2,399.9,373.1L399.9,373.1z"/>
<path class="st4" d="M141.5,53.6h-0.1l0,0C141.4,53.6,141.4,53.6,141.5,53.6z"/>
<path class="st4" d="M132.9,210.7c-0.1,0-0.1,0-0.1,0C132.8,210.7,132.8,210.7,132.9,210.7z"/>
<path class="st5" d="M141.4,53.6C141.4,53.6,141.3,53.6,141.4,53.6L141.4,53.6C141.3,53.6,141.4,53.6,141.4,53.6L141.4,53.6z"/>
<path class="st5" d="M141.4,53.6C141.4,53.6,141.3,53.6,141.4,53.6h0.1C141.4,53.6,141.4,53.6,141.4,53.6L141.4,53.6z"/>
<path class="st3" d="M180.5,0C80.8,0,0,80.8,0,180.5S80.8,361,180.5,361S361,280.2,361,180.5S280.1,0,180.5,0z M180.5,330.3
	c-82.8,0-149.9-67.1-149.9-149.9S97.7,30.6,180.5,30.6s149.9,67.1,149.9,149.9S263.2,330.3,180.5,330.3z"/>
</svg>
